<svg xmlns="http://www.w3.org/2000/svg" viewBox="0 0 1200 750">
  <defs>
    <linearGradient id="bg" x1="0" y1="0" x2="1" y2="1">
      <stop offset="0" stop-color="#0b0d12" />
      <stop offset="0.5" stop-color="#101826" />
      <stop offset="1" stop-color="#1d1a10" />
    </linearGradient>
    <radialGradient id="glow" cx="70%" cy="16%" r="70%">
      <stop offset="0" stop-color="rgba(255,209,102,0.45)" />
      <stop offset="1" stop-color="rgba(255,209,102,0)" />
    </radialGradient>
    <linearGradient id="cheese" x1="0" y1="0" x2="0" y2="1">
      <stop offset="0" stop-color="#fff4c7" />
      <stop offset="1" stop-color="#ffe08a" />
    </linearGradient>
    <linearGradient id="crust" x1="0" y1="0" x2="0" y2="1">
      <stop offset="0" stop-color="#c88f4b" />
      <stop offset="1" stop-color="#9b6b31" />
    </linearGradient>
    <filter id="shadow" x="-30%" y="-30%" width="160%" height="160%">
      <feDropShadow dx="0" dy="18" stdDeviation="18" flood-color="rgba(0,0,0,0.5)" />
    </filter>
  </defs>

  <rect width="1200" height="750" rx="44" fill="url(#bg)" />
  <rect width="1200" height="750" rx="44" fill="url(#glow)" />

  <g filter="url(#shadow)">
    <ellipse cx="600" cy="490" rx="420" ry="170" fill="rgba(255,255,255,0.08)" />
    <path d="M320 440c0-96 125-174 280-174s280 78 280 174-125 174-280 174-280-78-280-174Z" fill="url(#cheese)" />
    <path d="M340 474c44-64 140-110 260-110s216 46 260 110c-52 55-146 92-260 92s-208-37-260-92Z" fill="rgba(255,255,255,0.12)" />
    <path d="M340 496c0 62 116 112 260 112s260-50 260-112v-34c0-62-116-112-260-112S340 400 340 462v34Z" fill="url(#crust)" opacity="0.9" />
  </g>

  <g>
    <path d="M640 305c54 0 96 40 96 76 0 32-18 52-44 64-7 3-10 11-7 18l6 14-18-6c-7-2-14 1-18 7-14 22-38 36-68 36-46 0-84-34-84-78 0-72 78-131 137-131Z" fill="rgba(255,255,255,0.12)" />
    <circle cx="690" cy="372" r="10" fill="#ffd166" />
    <circle cx="655" cy="395" r="8" fill="#ffd166" />
    <circle cx="670" cy="420" r="7" fill="#ff4d6d" opacity="0.7" />
  </g>

  <g opacity="0.92">
    <text x="90" y="120" font-size="42" font-family="system-ui,Segoe UI,Arial" fill="rgba(255,255,255,0.86)">
      Cheesecake de limón
    </text>
    <text x="90" y="165" font-size="22" font-family="system-ui,Segoe UI,Arial" fill="rgba(255,255,255,0.64)">
      Placeholder didáctico (reemplázalo por tu foto)
    </text>
  </g>
</svg>

